<svg xmlns="http://www.w3.org/2000/svg" xmlns:xlink="http://www.w3.org/1999/xlink" width="500" zoomAndPan="magnify" viewBox="0 0 375 374.999991" height="500" preserveAspectRatio="xMidYMid meet" version="1.0"><defs><g/><clipPath id="id1"><path d="M 20.644531 144.015625 L 267.394531 144.015625 L 267.394531 231.015625 L 20.644531 231.015625 Z M 20.644531 144.015625 " clip-rule="nonzero"/></clipPath><clipPath id="id2"><path d="M 267.148438 144.015625 L 354.148438 144.015625 L 354.148438 231.015625 L 267.148438 231.015625 Z M 267.148438 144.015625 " clip-rule="nonzero"/></clipPath></defs><rect x="-37.5" width="450" fill="rgb(100%, 100%, 100%)" y="-37.499999" height="449.999989" fill-opacity="1"/><g clip-path="url(#id1)"><path fill="rgb(14.118958%, 8.628845%, 74.899292%)" d="M 20.644531 144.015625 L 267.394531 144.015625 L 267.394531 231.015625 L 20.644531 231.015625 Z M 20.644531 144.015625 " fill-opacity="1" fill-rule="nonzero"/></g><g clip-path="url(#id2)"><path fill="rgb(98.039246%, 78.42865%, 8.239746%)" d="M 267.148438 144.015625 L 354.148438 144.015625 L 354.148438 231.015625 L 267.148438 231.015625 Z M 267.148438 144.015625 " fill-opacity="1" fill-rule="nonzero"/></g><path fill="rgb(14.118958%, 8.628845%, 74.899292%)" d="M 333.769531 192.730469 L 308.914062 167.875 C 308.648438 167.609375 308.273438 167.476562 307.898438 167.53125 L 294.457031 169.382812 C 293.933594 169.457031 293.523438 169.867188 293.453125 170.390625 L 291.597656 183.832031 C 291.542969 184.207031 291.679688 184.582031 291.941406 184.847656 L 316.796875 209.703125 C 317.269531 210.175781 318.023438 210.179688 318.488281 209.710938 L 333.78125 194.421875 C 334.246094 193.953125 334.242188 193.203125 333.769531 192.730469 M 296.636719 174.863281 C 295.992188 174.21875 295.984375 173.1875 296.621094 172.550781 C 297.253906 171.917969 298.285156 171.925781 298.929688 172.566406 C 299.570312 173.210938 299.578125 174.242188 298.945312 174.878906 C 298.3125 175.511719 297.277344 175.503906 296.636719 174.863281 " fill-opacity="1" fill-rule="nonzero"/><g fill="rgb(100%, 100%, 100%)" fill-opacity="1"><g transform="translate(40.882875, 197.867697)"><g><path d="M 1.84375 -24.765625 L 15.078125 -24.765625 C 17.410156 -24.765625 19.207031 -24.253906 20.46875 -23.234375 C 21.726562 -22.210938 22.359375 -20.648438 22.359375 -18.546875 C 22.359375 -16.785156 22.003906 -15.460938 21.296875 -14.578125 C 20.585938 -13.691406 19.460938 -13.066406 17.921875 -12.703125 L 17.921875 -12.5625 C 18.953125 -12.300781 19.785156 -11.972656 20.421875 -11.578125 C 21.066406 -11.179688 21.5625 -10.59375 21.90625 -9.8125 C 22.25 -9.03125 22.421875 -7.96875 22.421875 -6.625 C 22.421875 -4.394531 21.828125 -2.734375 20.640625 -1.640625 C 19.453125 -0.546875 17.578125 0 15.015625 0 L 1.84375 0 Z M 11.84375 -14.96875 C 12.519531 -14.96875 13 -15.007812 13.28125 -15.09375 C 13.570312 -15.1875 13.765625 -15.363281 13.859375 -15.625 C 13.953125 -15.882812 14 -16.328125 14 -16.953125 C 14 -17.597656 13.953125 -18.050781 13.859375 -18.3125 C 13.765625 -18.582031 13.578125 -18.757812 13.296875 -18.84375 C 13.023438 -18.925781 12.539062 -18.96875 11.84375 -18.96875 L 10.109375 -18.96875 L 10.109375 -14.96875 Z M 11.84375 -5.796875 C 12.539062 -5.796875 13.023438 -5.835938 13.296875 -5.921875 C 13.578125 -6.003906 13.765625 -6.179688 13.859375 -6.453125 C 13.953125 -6.734375 14 -7.210938 14 -7.890625 C 14 -8.554688 13.953125 -9.03125 13.859375 -9.3125 C 13.765625 -9.601562 13.570312 -9.796875 13.28125 -9.890625 C 13 -9.992188 12.519531 -10.046875 11.84375 -10.046875 L 10.109375 -10.046875 L 10.109375 -5.796875 Z M 11.84375 -5.796875 "/></g></g></g><g fill="rgb(100%, 100%, 100%)" fill-opacity="1"><g transform="translate(63.81492, 197.867697)"><g><path d="M 1.84375 0 L 1.84375 -24.765625 L 19.984375 -24.765625 L 19.984375 -18.75 L 10.21875 -18.75 L 10.21875 -15.4375 L 18.28125 -15.4375 L 18.28125 -9.578125 L 10.21875 -9.578125 L 10.21875 -6.015625 L 19.984375 -6.015625 L 19.984375 0 Z M 1.84375 0 "/></g></g></g><g fill="rgb(100%, 100%, 100%)" fill-opacity="1"><g transform="translate(84.694959, 197.867697)"><g><path d="M 6.515625 0 L 6.515625 -18.4375 L 0.46875 -18.4375 L 0.46875 -24.765625 L 21.03125 -24.765625 L 21.03125 -18.4375 L 14.9375 -18.4375 L 14.9375 0 Z M 6.515625 0 "/></g></g></g><g fill="rgb(100%, 100%, 100%)" fill-opacity="1"><g transform="translate(105.358987, 197.867697)"><g><path d="M 6.515625 0 L 6.515625 -18.4375 L 0.46875 -18.4375 L 0.46875 -24.765625 L 21.03125 -24.765625 L 21.03125 -18.4375 L 14.9375 -18.4375 L 14.9375 0 Z M 6.515625 0 "/></g></g></g><g fill="rgb(100%, 100%, 100%)" fill-opacity="1"><g transform="translate(126.023022, 197.867697)"><g><path d="M 1.84375 0 L 1.84375 -24.765625 L 19.984375 -24.765625 L 19.984375 -18.75 L 10.21875 -18.75 L 10.21875 -15.4375 L 18.28125 -15.4375 L 18.28125 -9.578125 L 10.21875 -9.578125 L 10.21875 -6.015625 L 19.984375 -6.015625 L 19.984375 0 Z M 1.84375 0 "/></g></g></g><g fill="rgb(100%, 100%, 100%)" fill-opacity="1"><g transform="translate(146.903063, 197.867697)"><g><path d="M 14.4375 0 L 11.953125 -8.25 L 10.265625 -8.25 L 10.265625 0 L 1.84375 0 L 1.84375 -24.765625 L 14.875 -24.765625 C 17.03125 -24.765625 18.660156 -24.46875 19.765625 -23.875 C 20.867188 -23.289062 21.601562 -22.421875 21.96875 -21.265625 C 22.34375 -20.117188 22.53125 -18.523438 22.53125 -16.484375 C 22.53125 -14.566406 22.335938 -13.035156 21.953125 -11.890625 C 21.578125 -10.753906 20.820312 -9.875 19.6875 -9.25 L 23.078125 0 Z M 11.765625 -13.828125 C 12.515625 -13.828125 13.035156 -13.875 13.328125 -13.96875 C 13.628906 -14.0625 13.832031 -14.269531 13.9375 -14.59375 C 14.050781 -14.914062 14.109375 -15.5 14.109375 -16.34375 C 14.109375 -17.207031 14.070312 -17.796875 14 -18.109375 C 13.925781 -18.421875 13.734375 -18.628906 13.421875 -18.734375 C 13.109375 -18.847656 12.546875 -18.90625 11.734375 -18.90625 L 10.265625 -18.90625 L 10.265625 -13.828125 Z M 11.765625 -13.828125 "/></g></g></g><g fill="rgb(100%, 100%, 100%)" fill-opacity="1"><g transform="translate(170.015103, 197.867697)"><g/></g></g><g fill="rgb(100%, 100%, 100%)" fill-opacity="1"><g transform="translate(178.69112, 197.867697)"><g><path d="M 1.84375 -24.765625 L 15.078125 -24.765625 C 17.410156 -24.765625 19.207031 -24.253906 20.46875 -23.234375 C 21.726562 -22.210938 22.359375 -20.648438 22.359375 -18.546875 C 22.359375 -16.785156 22.003906 -15.460938 21.296875 -14.578125 C 20.585938 -13.691406 19.460938 -13.066406 17.921875 -12.703125 L 17.921875 -12.5625 C 18.953125 -12.300781 19.785156 -11.972656 20.421875 -11.578125 C 21.066406 -11.179688 21.5625 -10.59375 21.90625 -9.8125 C 22.25 -9.03125 22.421875 -7.96875 22.421875 -6.625 C 22.421875 -4.394531 21.828125 -2.734375 20.640625 -1.640625 C 19.453125 -0.546875 17.578125 0 15.015625 0 L 1.84375 0 Z M 11.84375 -14.96875 C 12.519531 -14.96875 13 -15.007812 13.28125 -15.09375 C 13.570312 -15.1875 13.765625 -15.363281 13.859375 -15.625 C 13.953125 -15.882812 14 -16.328125 14 -16.953125 C 14 -17.597656 13.953125 -18.050781 13.859375 -18.3125 C 13.765625 -18.582031 13.578125 -18.757812 13.296875 -18.84375 C 13.023438 -18.925781 12.539062 -18.96875 11.84375 -18.96875 L 10.109375 -18.96875 L 10.109375 -14.96875 Z M 11.84375 -5.796875 C 12.539062 -5.796875 13.023438 -5.835938 13.296875 -5.921875 C 13.578125 -6.003906 13.765625 -6.179688 13.859375 -6.453125 C 13.953125 -6.734375 14 -7.210938 14 -7.890625 C 14 -8.554688 13.953125 -9.03125 13.859375 -9.3125 C 13.765625 -9.601562 13.570312 -9.796875 13.28125 -9.890625 C 13 -9.992188 12.519531 -10.046875 11.84375 -10.046875 L 10.109375 -10.046875 L 10.109375 -5.796875 Z M 11.84375 -5.796875 "/></g></g></g><g fill="rgb(100%, 100%, 100%)" fill-opacity="1"><g transform="translate(201.623168, 197.867697)"><g><path d="M 22.46875 -24.765625 L 22.46875 -11.375 C 22.46875 -7.945312 22.296875 -5.492188 21.953125 -4.015625 C 21.617188 -2.535156 20.738281 -1.445312 19.3125 -0.75 C 17.882812 -0.0625 15.488281 0.28125 12.125 0.28125 C 8.769531 0.28125 6.382812 -0.0625 4.96875 -0.75 C 3.550781 -1.445312 2.675781 -2.535156 2.34375 -4.015625 C 2.007812 -5.492188 1.84375 -7.945312 1.84375 -11.375 L 1.84375 -24.765625 L 10.265625 -24.765625 L 10.265625 -10.015625 C 10.265625 -8.523438 10.289062 -7.53125 10.34375 -7.03125 C 10.40625 -6.539062 10.550781 -6.21875 10.78125 -6.0625 C 11.007812 -5.90625 11.457031 -5.828125 12.125 -5.828125 C 12.800781 -5.828125 13.257812 -5.90625 13.5 -6.0625 C 13.738281 -6.21875 13.890625 -6.546875 13.953125 -7.046875 C 14.015625 -7.554688 14.046875 -8.546875 14.046875 -10.015625 L 14.046875 -24.765625 Z M 22.46875 -24.765625 "/></g></g></g><g fill="rgb(100%, 100%, 100%)" fill-opacity="1"><g transform="translate(225.095216, 197.867697)"><g><path d="M 7.703125 0 L 7.703125 -7.984375 L -0.109375 -24.765625 L 8.453125 -24.765625 L 11.875 -15.546875 L 12.125 -15.546875 L 15.546875 -24.765625 L 23.9375 -24.765625 L 16.125 -7.984375 L 16.125 0 Z M 7.703125 0 "/></g></g></g></svg>